Patient4_TMGait_0pt7_02_left_26_EMG.mot
version=1
nRows=13
nColumns=33
inDegrees=no
endheader
time	1LAddLong	2LGlutMax	3LGlutMed	4LIliopsoas	5LSemiMemb	6LBicFemLong	7LRecFem	8LVastMed	9LVastLat	10LGasMed	11LTibAnt	12lTibPost	13LPeroneusLong	14LSol	15LExtDigLong	16LFlexDigLong	17RAddLong	18RGlutMax	19RGlutMed	20RIliopsoas	21RSemiMemb	22RBicFemLong	23RRecFem	24RVastMed	25RVastLat	26RGasMed	27RTibAnt	28RTibPost	29RPeroneusLong	30RSol	31RExtDigLong	32RFlexDigLong
30.41	0.005035	-0.3862	-0.18784	-0.010223	0.018768	0.06134	-0.008698	0.009766	-0.014343	0.060425	0.046082	-0.000763	-0.032043	-0.12177	-0.64789	-0.019226	-0.12985	-0.08728	0.23834	-0.16296	1.0004	-0.24475	-0.38925	0.49774	-0.19974	-0.009766	-0.005341	-0.002136	0.23422	-0.021667	-0.002441	-0.007324
30.411	0.002136	-0.37018	-0.19821	-0.012817	0.015106	0.035706	-0.016937	0.011597	-0.004272	0.26428	-0.18662	0.005035	-0.000458	0.005341	-0.36362	-0.001373	-0.14908	-0.074463	0.32913	0.03418	0.37628	-0.2359	-0.080109	0.21027	-0.33508	0.002899	0.041046	-0.009613	-0.23422	-0.003052	-0.001373	-0.016632
30.412	0.01358	-0.34927	-0.18677	0.006104	0.047302	0.033875	-0.043945	0.00885	0.00885	0.38086	0.016632	0.002594	0.021667	0.14267	0.14526	-0.000458	-0.098724	0.014343	0.31174	0.27679	-0.11231	-0.26001	0.047913	-0.23056	0.18143	0.004883	0.074615	0.007935	-0.11658	-0.036011	-0.00412	-0.011749
30.413	0.008545	-0.30792	-0.15808	0.011444	0.050964	0.095978	-0.050354	0.00412	0.018463	0.13702	0.047455	0.005798	0.050964	0.15213	0.56198	-0.028229	-0.038147	-0.13351	-0.048523	0.39703	0.12985	-0.30121	-0.01297	-0.52856	0.51697	0.004425	0.068359	0.002289	0.4837	-0.08316	0.009308	-0.007935
30.414	0.003204	-0.26215	-0.16754	0.02182	0.032654	0.12207	-0.048981	0.003052	0.028992	-0.19134	0.079498	-0.001373	0.068512	0.10193	0.11673	-0.031433	0.019531	0	0.23132	0.21255	0.16693	-0.18265	0.012207	-0.51651	0.14404	0.002441	0.042572	-0.01297	0.46967	-0.053711	-0.002136	-0.011597
30.415	0.003052	-0.21484	-0.12344	0.003204	0.027161	0.11063	-0.059662	0.006866	0.036163	-0.1828	-0.053406	0.010071	0.036011	0.068054	-0.20721	-0.018921	0.05249	0.16556	0.43854	0.10712	0.083008	-0.24475	0.11108	-0.15732	-0.35736	-0.007935	0.027771	-0.02243	0.048523	-0.046234	-0.001373	-0.006714
30.416	0.007019	-0.24048	-0.061646	0.007477	-0.002441	0.061188	-0.096893	0.00412	0.033417	-0.032654	-0.12222	0.015411	0.000916	-0.010223	-0.33066	-0.009003	0.065613	0.16647	0.1181	0.10269	0.18646	-0.37628	0.12772	0.033112	-0.63995	-0.02121	0.021515	-0.031281	0.33524	0.083466	-0.000458	-0.016785
30.417	0.023956	-0.20065	-0.026398	0.001373	-0.023346	-0.020447	-0.103	0.002441	0.039215	0.010071	-0.090637	0.016327	-0.020294	-0.050049	-0.28214	-0.002899	0.10696	0.098877	0.50369	0.016479	0.29022	-0.34302	-0.13138	0.42801	-0.56839	-0.010681	-0.028534	-0.011749	0.2948	0.082245	-0.001984	-0.012665
30.418	0.025635	-0.23331	-0.082092	0.011292	-0.015411	-0.079651	-0.093536	0.005951	0.031738	-0.001831	-0.076141	0.018005	-0.030212	-0.066528	-0.1033	0.001831	0.18753	-0.077057	0.67215	-0.041199	0.35431	-0.17807	-0.28275	0.49255	-0.35095	-0.003052	-0.039215	0.023193	-0.076904	0.002899	-0.001831	-0.015259
30.419	0.023193	-0.25192	-0.10315	-0.007629	-0.016022	-0.13702	-0.11368	0.006866	0.028229	-0.061188	-0.048065	0.010834	-0.046844	-0.052185	-0.005951	-0.00061	0.27252	-0.12054	0.50476	-0.11154	0.25131	-0.1236	-0.55145	0.24414	-0.20813	-0.006714	-0.00946	0.023346	0.12741	-0.019989	-0.006561	-0.014648
30.42	0.027313	-0.24338	-0.072021	-0.00885	-0.03067	-0.13351	-0.097351	-0.001221	0.023956	-0.054626	-0.018616	-0.000153	-0.065765	-0.027618	0.006561	-0.00351	0.26138	-0.11612	0.36575	-0.13428	0.16266	0.04715	-0.25543	-0.045166	0.073547	-0.006409	0.027771	-0.018463	-0.5748	-0.1712	-0.002136	-0.015259
30.421	0.019073	-0.20416	-0.050812	-0.006104	-0.011139	-0.13275	-0.10452	0.001221	0.032043	-0.02121	-0.036469	0.005188	-0.079041	-0.009003	0.088196	-0.00885	0.10284	0.008545	0.52704	-0.10681	0.096741	0.2948	-0.093536	-0.087433	0.49347	0.006409	0.12116	-0.02121	-0.93765	-0.17181	-0.003357	-0.002594
30.422	0.009003	-0.2179	-0.062103	-0.010529	0.007935	-0.1326	-0.087128	0.003052	0.022736	0.075226	0.071259	0.00885	-0.018463	-0.003357	0.22492	0.000458	-0.10513	0.17242	0.38513	-0.010529	0.081787	0.4335	-0.26337	-0.13229	0.69458	-0.001068	0.18356	-0.014496	-0.60715	-0.088501	-0.001678	-0.00824
